<svg id="Layer_1" data-username="Layer 1" xmlns="http://www.w3.org/2000/svg" viewBox="0 0 399.69 170.29"><defs><style>.cls-1{fill:#010101;}.cls-2{fill:#030303;}</style></defs><title>supsi-logo</title><path d="M143.31,78q0,15,0,30c0,14.74,8.38,23.22,23.7,24,14.79.69,24.95-7.54,26.19-21.67,1.83-20.93.58-41.93.67-62.89,0-5.1,1.31-6.5,6.41-6.35,12.15.37,12.17.1,12.16,12.28,0,18.08.68,36.2-.21,54.24-1.53,31.17-23.53,42.11-49.27,40.61a58.14,58.14,0,0,1-6.26-.87c-20.89-3.59-32.41-16.62-32.8-38.14-.38-21.16,0-42.34-.16-63.52,0-3.62,1.23-4.48,4.66-4.55,15-.28,14.94-.39,14.94,14.36V78Z" transform="translate(-37 -39.71)"/><path d="M232.74,93.8c0-15.41.18-30.81-.11-46.2-.09-4.88.91-6.71,6.27-6.56,14.23.41,28.48.1,42.73.15,17.59.06,30.17,10.44,33.38,27.45s-5.28,33.15-20.9,39.42a61.16,61.16,0,0,1-22.57,4c-2.82,0-4.49-.68-4.15-3.86a19.78,19.78,0,0,0,0-2.31c-.05-9.57-.05-9.57,9.28-10.13,15.84-1,24.32-15.52,17.26-29.91-3.05-6.2-8.63-8.5-15.22-8.58-7.12-.09-14.26.25-21.37-.11-4.41-.22-5.47,1.26-5.44,5.53.19,25.79,0,51.59.22,77.38,0,5-1.11,6.58-6.32,6.44-13.05-.37-13.06-.09-13.06-13.44Z" transform="translate(-37 -39.71)"/><path d="M360.12,39.82a62.9,62.9,0,0,1,25.11,4.63c2.44,1,3.54,1.86,2.36,5-3.85,10.31-3.64,10.35-14.11,8-6.22-1.4-12.52-2.22-18.87-1-4.57.87-8.68,2.86-9.81,7.76s1.16,8.85,5.3,11.84c6.46,4.66,13.92,7.37,20.91,11,8.47,4.39,16.63,9.19,20.78,18.36,7.37,16.28-.36,33.75-18.07,39.81-15.73,5.37-31.41,4-46.75-2.2-3-1.23-4-2.58-2.67-6.07,4.06-10.45,3.85-10.44,14.59-7.56,8.46,2.26,17,2.88,25.65.79,5.37-1.31,9.77-4,10.83-9.87,1.09-6.09-2.14-10.27-6.91-13.5s-9.79-5.33-14.88-7.62c-5.79-2.62-11.53-5.35-16.53-9.35-8.73-7-12.21-16.28-10.54-27.12s8.61-17.3,18.7-20.67C350.34,40.34,355.62,39.38,360.12,39.82Z" transform="translate(-37 -39.71)"/><path d="M73.75,39.82c8.91-.33,16.87,1.66,24.67,4.61,2.55,1,3.51,1.87,2.39,5C97,59.88,97.22,59.93,86.62,57.46a46.84,46.84,0,0,0-17.16-1.24c-5.16.72-10,2.28-11.49,8s2.13,9.43,6.32,12.47c5.65,4.09,12.25,6.43,18.41,9.58,5.49,2.8,10.9,5.7,15.5,9.9,15,13.77,11.9,38.22-6.5,47-17,8.06-34.33,6.6-51.49-.15-2.85-1.13-4-2.84-2.69-5.79.3-.7.53-1.44.8-2.16,3.39-8.9,3.37-8.82,12.5-6.11s18.5,3.54,27.85,1c4.88-1.34,8.73-4.06,9.8-9.47s-1.29-9.29-5.34-12.52c-6-4.75-13.16-7.13-19.89-10.4C57.5,94.76,51.92,91.8,47.4,87.16c-14-14.42-9.31-37.1,9.37-44.49A38.52,38.52,0,0,1,73.75,39.82Z" transform="translate(-37 -39.71)"/><path d="M413.6,94.26c0-16,.12-31.95-.08-47.93,0-4,1.06-5.25,5.15-5.25,13.83,0,13.83-.16,13.83,13.86,0,28.68-.09,57.36.1,86.05,0,4.33-1.19,5.53-5.5,5.49-13.5-.13-13.5.06-13.5-13.53Z" transform="translate(-37 -39.71)"/><path class="cls-1" d="M436.62,197.89c0,11.31,0,11.35-11.28,11.94a59.45,59.45,0,0,1-8.65-.05c-14.18-1.35-22.87-11.79-22.2-26.52.69-15.17,9.6-24,24.34-24.29A48.79,48.79,0,0,1,432,160.18c1.77.45,4,.58,3.23,3.56-.63,2.36-1.64,3.69-4.41,3.26a61.41,61.41,0,0,0-10.28-1c-7.42.13-13.67,2.82-16.67,10.1-2.9,7-2.38,14.08,2.62,20.09,5.17,6.22,12.35,7.25,19.94,6.61,2.29-.2,2.63-1.8,2.6-3.71-.05-2.5.11-5,0-7.49s.58-3.83,3.5-3.78c2.72.06,4.48.44,4.18,3.74C436.46,193.65,436.62,195.78,436.62,197.89Z" transform="translate(-37 -39.71)"/><path class="cls-2" d="M303,184.25c0-7.11.11-14.22-.05-21.32-.07-2.9.7-4.06,3.83-4.05s3.93,1.15,3.9,4.06c-.11,11.71.08,23.43-.12,35.15-.06,3.68.89,5.19,4.79,4.89,4.2-.32,8.45,0,12.67-.1,2.43-.06,4,.24,3.89,3.33-.06,2.65-.67,3.77-3.54,3.71-7.3-.17-14.6-.16-21.9,0-2.88.06-3.55-1.15-3.51-3.76C303.06,198.85,303,191.55,303,184.25Z" transform="translate(-37 -39.71)"/><path d="M285.52,184.54c-2.69-1.69-2.47-2.54-.87-5.06,5.69-8.94,1.16-18.79-9.35-20.15-5.5-.71-11.15-.18-16.72-.37-2.82-.09-3,1.51-3,3.66.05,7.32,0,14.64,0,22,0,7.12,0,14.25,0,21.37,0,1.59-.64,3.92,2.12,3.83,7.86-.23,15.81,1.16,23.55-1.06,4.85-1.39,8.13-4.58,8.77-9.67C290.72,193.62,291,188,285.52,184.54Zm-17.29-19.87c7.21.48,10.85,2.87,10.74,8.24s-3.83,8.07-11,8c-4.65,0-4.65,0-4.64-8.66C264.34,169.7,260.65,164.16,268.23,164.67Zm3.43,38.24c-.58,0-1.16,0-2.62,0-6.5,2-5.73-3-5.69-7.54.08-9.51,0-9.51,8.92-8.56,7.12.77,10.6,3.57,10.38,8.37S278.66,202.64,271.66,202.91Z" transform="translate(-37 -39.71)"/><path d="M361.1,159c-15.94.08-25.7,9.82-25.62,25.57.09,16.11,9.45,25.36,25.63,25.3,16-.06,25.48-9.62,25.4-25.61C386.44,167.76,377.53,158.9,361.1,159Zm-.05,43.93c-10.18.07-17.75-7.88-17.77-18.69s7.5-18.42,18-18.3c10,.1,17.56,8,17.61,18.35C379,195,371.49,202.84,361.05,202.92Z" transform="translate(-37 -39.71)"/></svg>