<?xml version="1.0" encoding="utf-8"?>
<!-- Generator: Adobe Illustrator 23.0.0, SVG Export Plug-In . SVG Version: 6.00 Build 0)  -->
<svg version="1.1" id="Layer_1" xmlns="http://www.w3.org/2000/svg" xmlns:xlink="http://www.w3.org/1999/xlink" x="0px" y="0px"
	 viewBox="0 0 399.7 170.3" style="enable-background:new 0 0 399.7 170.3;" xml:space="preserve">
<style type="text/css">
	.st0{fill:#FFFFFF;}
</style>
<title>supsi-logo</title>
<path class="st0" d="M106.3,38.3c0,10,0,20,0,30c0,14.7,8.4,23.2,23.7,24c14.8,0.7,24.9-7.5,26.2-21.7c1.8-20.9,0.6-41.9,0.7-62.9
	c0-5.1,1.3-6.5,6.4-6.3c12.1,0.4,12.2,0.1,12.2,12.3c0,18.1,0.7,36.2-0.2,54.2c-1.5,31.2-23.5,42.1-49.3,40.6
	c-2.1-0.2-4.2-0.5-6.3-0.9C98.8,104.1,87.3,91,86.9,69.5c-0.4-21.2,0-42.3-0.2-63.5c0-3.6,1.2-4.5,4.7-4.5
	c15-0.3,14.9-0.4,14.9,14.4L106.3,38.3L106.3,38.3z"/>
<path class="st0" d="M195.7,54.1c0-15.4,0.2-30.8-0.1-46.2c-0.1-4.9,0.9-6.7,6.3-6.6c14.2,0.4,28.5,0.1,42.7,0.2
	c17.6,0.1,30.2,10.4,33.4,27.4s-5.3,33.2-20.9,39.4c-7.2,2.7-14.9,4.1-22.6,4c-2.8,0-4.5-0.7-4.1-3.9c0-0.8,0-1.5,0-2.3
	c0-9.6,0-9.6,9.3-10.1c15.8-1,24.3-15.5,17.3-29.9c-3-6.2-8.6-8.5-15.2-8.6c-7.1-0.1-14.3,0.3-21.4-0.1c-4.4-0.2-5.5,1.3-5.4,5.5
	c0.2,25.8,0,51.6,0.2,77.4c0,5-1.1,6.6-6.3,6.4c-13.1-0.4-13.1-0.1-13.1-13.4L195.7,54.1z"/>
<path class="st0" d="M323.1,0.1c8.6-0.2,17.1,1.4,25.1,4.6c2.4,1,3.5,1.9,2.4,5c-3.9,10.3-3.6,10.4-14.1,8c-6.2-1.4-12.5-2.2-18.9-1
	c-4.6,0.9-8.7,2.9-9.8,7.8s1.2,8.8,5.3,11.8c6.5,4.7,13.9,7.4,20.9,11c8.5,4.4,16.6,9.2,20.8,18.4c7.4,16.3-0.4,33.8-18.1,39.8
	c-15.7,5.4-31.4,4-46.8-2.2c-3-1.2-4-2.6-2.7-6.1c4.1-10.4,3.9-10.4,14.6-7.6c8.5,2.3,17,2.9,25.6,0.8c5.4-1.3,9.8-4,10.8-9.9
	c1.1-6.1-2.1-10.3-6.9-13.5s-9.8-5.3-14.9-7.6c-5.8-2.6-11.5-5.3-16.5-9.3c-8.7-7-12.2-16.3-10.5-27.1s8.6-17.3,18.7-20.7
	C313.3,0.6,318.6-0.3,323.1,0.1z"/>
<path class="st0" d="M36.8,0.1c8.9-0.3,16.9,1.7,24.7,4.6c2.6,1,3.5,1.9,2.4,5c-3.8,10.5-3.6,10.5-14.2,8
	c-5.6-1.5-11.4-1.9-17.2-1.2c-5.2,0.7-10,2.3-11.5,8s2.1,9.4,6.3,12.5c5.7,4.1,12.3,6.4,18.4,9.6c5.5,2.8,10.9,5.7,15.5,9.9
	c15,13.8,11.9,38.2-6.5,47c-17,8.1-34.3,6.6-51.5-0.1c-2.8-1.1-4-2.8-2.7-5.8c0.3-0.7,0.5-1.4,0.8-2.2c3.4-8.9,3.4-8.8,12.5-6.1
	c9.1,2.7,18.5,3.5,27.9,1c4.9-1.3,8.7-4.1,9.8-9.5s-1.3-9.3-5.3-12.5c-6-4.8-13.2-7.1-19.9-10.4c-5.7-2.8-11.3-5.8-15.8-10.4
	C-3.6,33,1.1,10.4,19.8,3C25.1,0.7,30.9-0.2,36.8,0.1z"/>
<path class="st0" d="M376.6,54.6c0-16,0.1-32-0.1-47.9c0-4,1.1-5.3,5.1-5.3c13.8,0,13.8-0.2,13.8,13.9c0,28.7-0.1,57.4,0.1,86.1
	c0,4.3-1.2,5.5-5.5,5.5c-13.5-0.1-13.5,0.1-13.5-13.5V54.6z"/>
<path class="st0" d="M399.6,158.2c0,11.3,0,11.4-11.3,11.9c-2.9,0.2-5.8,0.2-8.6,0c-14.2-1.4-22.9-11.8-22.2-26.5
	c0.7-15.2,9.6-24,24.3-24.3c4.4-0.2,8.9,0.2,13.2,1.2c1.8,0.4,4,0.6,3.2,3.6c-0.6,2.4-1.6,3.7-4.4,3.3c-3.4-0.6-6.8-1-10.3-1
	c-7.4,0.1-13.7,2.8-16.7,10.1c-2.9,7-2.4,14.1,2.6,20.1c5.2,6.2,12.4,7.3,19.9,6.6c2.3-0.2,2.6-1.8,2.6-3.7c0-2.5,0.1-5,0-7.5
	c-0.1-2.5,0.6-3.8,3.5-3.8c2.7,0.1,4.5,0.4,4.2,3.7C399.5,153.9,399.6,156.1,399.6,158.2z"/>
<path class="st0" d="M266,144.5c0-7.1,0.1-14.2,0-21.3c-0.1-2.9,0.7-4.1,3.8-4.1s3.9,1.1,3.9,4.1c-0.1,11.7,0.1,23.4-0.1,35.2
	c-0.1,3.7,0.9,5.2,4.8,4.9c4.2-0.3,8.5,0,12.7-0.1c2.4-0.1,4,0.2,3.9,3.3c-0.1,2.6-0.7,3.8-3.5,3.7c-7.3-0.2-14.6-0.2-21.9,0
	c-2.9,0.1-3.5-1.1-3.5-3.8C266.1,159.1,266,151.8,266,144.5z"/>
<path class="st0" d="M248.5,144.8c-2.7-1.7-2.5-2.5-0.9-5.1c5.7-8.9,1.2-18.8-9.4-20.1c-5.5-0.7-11.1-0.2-16.7-0.4
	c-2.8-0.1-3,1.5-3,3.7c0.1,7.3,0,14.6,0,22c0,7.1,0,14.3,0,21.4c0,1.6-0.6,3.9,2.1,3.8c7.9-0.2,15.8,1.2,23.5-1.1
	c4.9-1.4,8.1-4.6,8.8-9.7C253.7,153.9,254,148.3,248.5,144.8z M231.2,125c7.2,0.5,10.9,2.9,10.7,8.2c-0.1,5.4-3.8,8.1-11,8
	c-4.6,0-4.6,0-4.6-8.7C227.3,130,223.6,124.5,231.2,125L231.2,125z M234.7,163.2c-0.6,0-1.2,0-2.6,0c-6.5,2-5.7-3-5.7-7.5
	c0.1-9.5,0-9.5,8.9-8.6c7.1,0.8,10.6,3.6,10.4,8.4S241.7,162.9,234.7,163.2L234.7,163.2z"/>
<path class="st0" d="M324.1,119.3c-15.9,0.1-25.7,9.8-25.6,25.6c0.1,16.1,9.5,25.4,25.6,25.3c16-0.1,25.5-9.6,25.4-25.6
	C349.4,128,340.5,119.2,324.1,119.3z M324.1,163.2c-10.2,0.1-17.8-7.9-17.8-18.7s7.5-18.4,18-18.3c10,0.1,17.6,8,17.6,18.3
	C342,155.3,334.5,163.1,324.1,163.2L324.1,163.2z"/>
</svg>
